<svg width="331" height="24" viewBox="0 0 331 24" fill="none" xmlns="http://www.w3.org/2000/svg">
<g clip-path="url(#clip0_0_79)">
<path d="M299.048 9.076C298.808 8.804 298.488 8.584 298.088 8.416C297.688 8.248 297.232 8.164 296.72 8.164C295.968 8.164 295.42 8.308 295.076 8.596C294.732 8.876 294.56 9.26 294.56 9.748C294.56 10.004 294.604 10.216 294.692 10.384C294.788 10.544 294.932 10.684 295.124 10.804C295.316 10.924 295.56 11.028 295.856 11.116C296.16 11.204 296.516 11.292 296.924 11.38C297.38 11.476 297.788 11.584 298.148 11.704C298.516 11.824 298.828 11.976 299.084 12.16C299.34 12.336 299.536 12.552 299.672 12.808C299.808 13.064 299.876 13.384 299.876 13.768C299.876 14.16 299.8 14.5 299.648 14.788C299.496 15.076 299.284 15.316 299.012 15.508C298.74 15.7 298.416 15.844 298.04 15.94C297.664 16.028 297.252 16.072 296.804 16.072C295.484 16.072 294.344 15.66 293.384 14.836L293.804 14.152C293.956 14.312 294.136 14.464 294.344 14.608C294.56 14.752 294.796 14.88 295.052 14.992C295.316 15.096 295.596 15.18 295.892 15.244C296.188 15.3 296.5 15.328 296.828 15.328C297.508 15.328 298.036 15.208 298.412 14.968C298.796 14.72 298.988 14.348 298.988 13.852C298.988 13.588 298.932 13.368 298.82 13.192C298.716 13.008 298.556 12.852 298.34 12.724C298.124 12.588 297.856 12.472 297.536 12.376C297.216 12.28 296.844 12.184 296.42 12.088C295.972 11.984 295.58 11.876 295.244 11.764C294.908 11.652 294.624 11.512 294.392 11.344C294.16 11.176 293.984 10.976 293.864 10.744C293.752 10.504 293.696 10.212 293.696 9.868C293.696 9.476 293.768 9.128 293.912 8.824C294.064 8.512 294.276 8.256 294.548 8.056C294.82 7.848 295.14 7.692 295.508 7.588C295.876 7.476 296.284 7.42 296.732 7.42C297.3 7.42 297.804 7.508 298.244 7.684C298.692 7.852 299.096 8.092 299.456 8.404L299.048 9.076ZM301.189 16V9.748H302.005V16H301.189ZM301.189 8.44V7.24H302.005V8.44H301.189ZM306.31 16.084C305.878 16.084 305.482 15.996 305.122 15.82C304.77 15.636 304.462 15.396 304.198 15.1C303.942 14.804 303.742 14.464 303.598 14.08C303.454 13.696 303.382 13.3 303.382 12.892C303.382 12.46 303.45 12.048 303.586 11.656C303.73 11.256 303.93 10.908 304.186 10.612C304.442 10.316 304.746 10.08 305.098 9.904C305.458 9.728 305.854 9.64 306.286 9.64C306.822 9.64 307.286 9.776 307.678 10.048C308.07 10.312 308.406 10.648 308.686 11.056V9.748H309.418V16.024C309.418 16.456 309.334 16.836 309.166 17.164C309.006 17.5 308.786 17.78 308.506 18.004C308.234 18.228 307.91 18.396 307.534 18.508C307.166 18.62 306.774 18.676 306.358 18.676C305.638 18.676 305.058 18.548 304.618 18.292C304.178 18.036 303.822 17.692 303.55 17.26L304.054 16.864C304.302 17.264 304.63 17.556 305.038 17.74C305.446 17.932 305.886 18.028 306.358 18.028C306.662 18.028 306.95 17.984 307.222 17.896C307.494 17.816 307.73 17.692 307.93 17.524C308.138 17.364 308.302 17.156 308.422 16.9C308.542 16.652 308.602 16.36 308.602 16.024V14.788C308.362 15.188 308.034 15.504 307.618 15.736C307.202 15.968 306.766 16.084 306.31 16.084ZM306.538 15.4C306.778 15.4 307.014 15.356 307.246 15.268C307.478 15.18 307.686 15.064 307.87 14.92C308.062 14.768 308.222 14.6 308.35 14.416C308.478 14.232 308.562 14.044 308.602 13.852V11.92C308.514 11.696 308.394 11.488 308.242 11.296C308.09 11.104 307.918 10.94 307.726 10.804C307.534 10.668 307.326 10.56 307.102 10.48C306.886 10.4 306.666 10.36 306.442 10.36C306.09 10.36 305.774 10.436 305.494 10.588C305.222 10.732 304.99 10.924 304.798 11.164C304.606 11.404 304.458 11.676 304.354 11.98C304.258 12.284 304.21 12.592 304.21 12.904C304.21 13.24 304.27 13.56 304.39 13.864C304.51 14.168 304.674 14.436 304.882 14.668C305.098 14.892 305.346 15.072 305.626 15.208C305.906 15.336 306.21 15.4 306.538 15.4ZM316.476 16H315.66V12.508C315.66 11.764 315.548 11.224 315.324 10.888C315.108 10.552 314.772 10.384 314.316 10.384C314.076 10.384 313.836 10.428 313.596 10.516C313.356 10.604 313.132 10.728 312.924 10.888C312.724 11.048 312.544 11.24 312.384 11.464C312.224 11.68 312.108 11.916 312.036 12.172V16H311.22V9.748H311.964V11.164C312.22 10.708 312.584 10.34 313.056 10.06C313.536 9.78 314.056 9.64 314.616 9.64C314.96 9.64 315.252 9.704 315.492 9.832C315.732 9.96 315.924 10.14 316.068 10.372C316.212 10.604 316.316 10.888 316.38 11.224C316.444 11.56 316.476 11.932 316.476 12.34V16ZM321.443 16V7.48H322.283V16H321.443ZM329.508 16H328.692V12.508C328.692 11.764 328.58 11.224 328.356 10.888C328.14 10.552 327.804 10.384 327.348 10.384C327.108 10.384 326.868 10.428 326.628 10.516C326.388 10.604 326.164 10.728 325.956 10.888C325.756 11.048 325.576 11.24 325.416 11.464C325.256 11.68 325.14 11.916 325.068 12.172V16H324.252V9.748H324.996V11.164C325.252 10.708 325.616 10.34 326.088 10.06C326.568 9.78 327.088 9.64 327.648 9.64C327.992 9.64 328.284 9.704 328.524 9.832C328.764 9.96 328.956 10.14 329.1 10.372C329.244 10.604 329.348 10.888 329.412 11.224C329.476 11.56 329.508 11.932 329.508 12.34V16Z" fill="white"/>
<path d="M244.116 8.224H241.08V16H240.24V8.224H237.204V7.48H244.116V8.224ZM246.553 16.12C246.097 16.12 245.677 16.036 245.293 15.868C244.917 15.692 244.589 15.456 244.309 15.16C244.029 14.856 243.809 14.508 243.649 14.116C243.497 13.724 243.421 13.304 243.421 12.856C243.421 12.416 243.497 12.004 243.649 11.62C243.809 11.228 244.025 10.888 244.297 10.6C244.577 10.304 244.909 10.072 245.293 9.904C245.677 9.728 246.093 9.64 246.541 9.64C246.997 9.64 247.413 9.728 247.789 9.904C248.173 10.072 248.501 10.304 248.773 10.6C249.045 10.896 249.257 11.236 249.409 11.62C249.561 12.004 249.637 12.412 249.637 12.844C249.637 12.908 249.637 12.972 249.637 13.036C249.637 13.1 249.633 13.144 249.625 13.168H244.273C244.297 13.504 244.373 13.816 244.501 14.104C244.637 14.384 244.809 14.628 245.017 14.836C245.225 15.044 245.461 15.208 245.725 15.328C245.997 15.44 246.285 15.496 246.589 15.496C246.789 15.496 246.989 15.468 247.189 15.412C247.389 15.356 247.573 15.28 247.741 15.184C247.909 15.088 248.061 14.972 248.197 14.836C248.333 14.692 248.437 14.536 248.509 14.368L249.217 14.56C249.121 14.792 248.985 15.004 248.809 15.196C248.633 15.38 248.429 15.544 248.197 15.688C247.965 15.824 247.709 15.928 247.429 16C247.149 16.08 246.857 16.12 246.553 16.12ZM248.857 12.544C248.833 12.208 248.753 11.904 248.617 11.632C248.489 11.352 248.321 11.112 248.113 10.912C247.913 10.712 247.677 10.556 247.405 10.444C247.141 10.332 246.857 10.276 246.553 10.276C246.249 10.276 245.961 10.332 245.689 10.444C245.417 10.556 245.177 10.712 244.969 10.912C244.769 11.112 244.605 11.352 244.477 11.632C244.357 11.912 244.285 12.216 244.261 12.544H248.857ZM252.468 16.12C252.172 16.12 251.896 16.072 251.64 15.976C251.392 15.872 251.172 15.732 250.98 15.556C250.796 15.38 250.652 15.176 250.548 14.944C250.444 14.704 250.392 14.448 250.392 14.176C250.392 13.904 250.456 13.652 250.584 13.42C250.712 13.188 250.892 12.988 251.124 12.82C251.356 12.652 251.632 12.524 251.952 12.436C252.272 12.34 252.624 12.292 253.008 12.292C253.328 12.292 253.652 12.32 253.98 12.376C254.308 12.432 254.6 12.512 254.856 12.616V12.052C254.856 11.5 254.7 11.064 254.388 10.744C254.076 10.416 253.644 10.252 253.092 10.252C252.772 10.252 252.444 10.316 252.108 10.444C251.772 10.572 251.432 10.756 251.088 10.996L250.8 10.456C251.608 9.912 252.392 9.64 253.152 9.64C253.936 9.64 254.552 9.86 255 10.3C255.448 10.74 255.672 11.348 255.672 12.124V14.944C255.672 15.168 255.772 15.28 255.972 15.28V16C255.836 16.024 255.732 16.036 255.66 16.036C255.452 16.036 255.288 15.984 255.168 15.88C255.056 15.776 254.996 15.632 254.988 15.448L254.964 14.956C254.676 15.332 254.312 15.62 253.872 15.82C253.44 16.02 252.972 16.12 252.468 16.12ZM252.66 15.496C253.084 15.496 253.472 15.416 253.824 15.256C254.184 15.096 254.456 14.884 254.64 14.62C254.712 14.548 254.764 14.472 254.796 14.392C254.836 14.304 254.856 14.224 254.856 14.152V13.132C254.584 13.028 254.3 12.948 254.004 12.892C253.716 12.836 253.42 12.808 253.116 12.808C252.54 12.808 252.072 12.928 251.712 13.168C251.352 13.408 251.172 13.724 251.172 14.116C251.172 14.308 251.208 14.488 251.28 14.656C251.36 14.824 251.464 14.972 251.592 15.1C251.728 15.22 251.888 15.316 252.072 15.388C252.256 15.46 252.452 15.496 252.66 15.496ZM266.735 16H265.919V12.508C265.919 11.78 265.803 11.244 265.571 10.9C265.339 10.556 264.995 10.384 264.539 10.384C264.299 10.384 264.071 10.428 263.855 10.516C263.647 10.604 263.451 10.728 263.267 10.888C263.091 11.048 262.935 11.24 262.799 11.464C262.663 11.68 262.559 11.92 262.487 12.184V16H261.671V12.508C261.671 11.764 261.559 11.224 261.335 10.888C261.111 10.552 260.767 10.384 260.303 10.384C259.831 10.384 259.411 10.548 259.043 10.876C258.675 11.204 258.411 11.636 258.251 12.172V16H257.435V9.748H258.179V11.164C258.435 10.684 258.771 10.312 259.187 10.048C259.603 9.776 260.063 9.64 260.567 9.64C261.095 9.64 261.515 9.788 261.827 10.084C262.147 10.38 262.343 10.768 262.415 11.248C262.999 10.176 263.803 9.64 264.827 9.64C265.179 9.64 265.475 9.704 265.715 9.832C265.963 9.96 266.159 10.144 266.303 10.384C266.455 10.616 266.563 10.9 266.627 11.236C266.699 11.564 266.735 11.932 266.735 12.34V16Z" fill="white"/>
<path d="M165.068 16V7.48H170.66V8.224H165.908V11.356H169.916V12.052H165.908V16H165.068ZM174.256 16.12C173.8 16.12 173.38 16.036 172.996 15.868C172.62 15.692 172.292 15.456 172.012 15.16C171.732 14.856 171.512 14.508 171.352 14.116C171.2 13.724 171.124 13.304 171.124 12.856C171.124 12.416 171.2 12.004 171.352 11.62C171.512 11.228 171.728 10.888 172 10.6C172.28 10.304 172.612 10.072 172.996 9.904C173.38 9.728 173.796 9.64 174.244 9.64C174.7 9.64 175.116 9.728 175.492 9.904C175.876 10.072 176.204 10.304 176.476 10.6C176.748 10.896 176.96 11.236 177.112 11.62C177.264 12.004 177.34 12.412 177.34 12.844C177.34 12.908 177.34 12.972 177.34 13.036C177.34 13.1 177.336 13.144 177.328 13.168H171.976C172 13.504 172.076 13.816 172.204 14.104C172.34 14.384 172.512 14.628 172.72 14.836C172.928 15.044 173.164 15.208 173.428 15.328C173.7 15.44 173.988 15.496 174.292 15.496C174.492 15.496 174.692 15.468 174.892 15.412C175.092 15.356 175.276 15.28 175.444 15.184C175.612 15.088 175.764 14.972 175.9 14.836C176.036 14.692 176.14 14.536 176.212 14.368L176.92 14.56C176.824 14.792 176.688 15.004 176.512 15.196C176.336 15.38 176.132 15.544 175.9 15.688C175.668 15.824 175.412 15.928 175.132 16C174.852 16.08 174.56 16.12 174.256 16.12ZM176.56 12.544C176.536 12.208 176.456 11.904 176.32 11.632C176.192 11.352 176.024 11.112 175.816 10.912C175.616 10.712 175.38 10.556 175.108 10.444C174.844 10.332 174.56 10.276 174.256 10.276C173.952 10.276 173.664 10.332 173.392 10.444C173.12 10.556 172.88 10.712 172.672 10.912C172.472 11.112 172.308 11.352 172.18 11.632C172.06 11.912 171.988 12.216 171.964 12.544H176.56ZM180.171 16.12C179.875 16.12 179.599 16.072 179.343 15.976C179.095 15.872 178.875 15.732 178.683 15.556C178.499 15.38 178.355 15.176 178.251 14.944C178.147 14.704 178.095 14.448 178.095 14.176C178.095 13.904 178.159 13.652 178.287 13.42C178.415 13.188 178.595 12.988 178.827 12.82C179.059 12.652 179.335 12.524 179.655 12.436C179.975 12.34 180.327 12.292 180.711 12.292C181.031 12.292 181.355 12.32 181.683 12.376C182.011 12.432 182.303 12.512 182.559 12.616V12.052C182.559 11.5 182.403 11.064 182.091 10.744C181.779 10.416 181.347 10.252 180.795 10.252C180.475 10.252 180.147 10.316 179.811 10.444C179.475 10.572 179.135 10.756 178.791 10.996L178.503 10.456C179.311 9.912 180.095 9.64 180.855 9.64C181.639 9.64 182.255 9.86 182.703 10.3C183.151 10.74 183.375 11.348 183.375 12.124V14.944C183.375 15.168 183.475 15.28 183.675 15.28V16C183.539 16.024 183.435 16.036 183.363 16.036C183.155 16.036 182.991 15.984 182.871 15.88C182.759 15.776 182.699 15.632 182.691 15.448L182.667 14.956C182.379 15.332 182.015 15.62 181.575 15.82C181.143 16.02 180.675 16.12 180.171 16.12ZM180.363 15.496C180.787 15.496 181.175 15.416 181.527 15.256C181.887 15.096 182.159 14.884 182.343 14.62C182.415 14.548 182.467 14.472 182.499 14.392C182.539 14.304 182.559 14.224 182.559 14.152V13.132C182.287 13.028 182.003 12.948 181.707 12.892C181.419 12.836 181.123 12.808 180.819 12.808C180.243 12.808 179.775 12.928 179.415 13.168C179.055 13.408 178.875 13.724 178.875 14.116C178.875 14.308 178.911 14.488 178.983 14.656C179.063 14.824 179.167 14.972 179.295 15.1C179.431 15.22 179.591 15.316 179.775 15.388C179.959 15.46 180.155 15.496 180.363 15.496ZM188.091 15.7C188.043 15.724 187.971 15.756 187.875 15.796C187.787 15.836 187.683 15.876 187.563 15.916C187.443 15.956 187.307 15.992 187.155 16.024C187.003 16.056 186.843 16.072 186.675 16.072C186.499 16.072 186.331 16.048 186.171 16C186.011 15.952 185.871 15.88 185.751 15.784C185.631 15.68 185.535 15.552 185.463 15.4C185.391 15.248 185.355 15.072 185.355 14.872V10.396H184.491V9.748H185.355V7.636H186.171V9.748H187.611V10.396H186.171V14.644C186.187 14.876 186.267 15.048 186.411 15.16C186.563 15.264 186.735 15.316 186.927 15.316C187.159 15.316 187.363 15.28 187.539 15.208C187.715 15.128 187.827 15.072 187.875 15.04L188.091 15.7ZM191.067 16.12C190.387 16.12 189.879 15.896 189.543 15.448C189.215 14.992 189.051 14.316 189.051 13.42V9.748H189.867V13.276C189.867 14.692 190.351 15.4 191.319 15.4C191.559 15.4 191.795 15.36 192.027 15.28C192.259 15.2 192.471 15.084 192.663 14.932C192.863 14.78 193.039 14.6 193.191 14.392C193.351 14.184 193.479 13.948 193.575 13.684V9.748H194.391V14.944C194.391 15.168 194.487 15.28 194.679 15.28V16C194.583 16.016 194.503 16.024 194.439 16.024C194.383 16.024 194.343 16.024 194.319 16.024C194.127 16.016 193.971 15.948 193.851 15.82C193.731 15.692 193.671 15.52 193.671 15.304V14.584C193.399 15.072 193.027 15.452 192.555 15.724C192.091 15.988 191.595 16.12 191.067 16.12ZM199.356 10.468C198.804 10.484 198.324 10.636 197.916 10.924C197.508 11.212 197.22 11.608 197.052 12.112V16H196.236V9.748H197.004V11.248C197.236 10.768 197.548 10.392 197.94 10.12C198.332 9.848 198.752 9.712 199.2 9.712C199.264 9.712 199.316 9.716 199.356 9.724V10.468ZM202.827 16.12C202.371 16.12 201.951 16.036 201.567 15.868C201.191 15.692 200.863 15.456 200.583 15.16C200.303 14.856 200.083 14.508 199.923 14.116C199.771 13.724 199.695 13.304 199.695 12.856C199.695 12.416 199.771 12.004 199.923 11.62C200.083 11.228 200.299 10.888 200.571 10.6C200.851 10.304 201.183 10.072 201.567 9.904C201.951 9.728 202.367 9.64 202.815 9.64C203.271 9.64 203.687 9.728 204.063 9.904C204.447 10.072 204.775 10.304 205.047 10.6C205.319 10.896 205.531 11.236 205.683 11.62C205.835 12.004 205.911 12.412 205.911 12.844C205.911 12.908 205.911 12.972 205.911 13.036C205.911 13.1 205.907 13.144 205.899 13.168H200.547C200.571 13.504 200.647 13.816 200.775 14.104C200.911 14.384 201.083 14.628 201.291 14.836C201.499 15.044 201.735 15.208 201.999 15.328C202.271 15.44 202.559 15.496 202.863 15.496C203.063 15.496 203.263 15.468 203.463 15.412C203.663 15.356 203.847 15.28 204.015 15.184C204.183 15.088 204.335 14.972 204.471 14.836C204.607 14.692 204.711 14.536 204.783 14.368L205.491 14.56C205.395 14.792 205.259 15.004 205.083 15.196C204.907 15.38 204.703 15.544 204.471 15.688C204.239 15.824 203.983 15.928 203.703 16C203.423 16.08 203.131 16.12 202.827 16.12ZM205.131 12.544C205.107 12.208 205.027 11.904 204.891 11.632C204.763 11.352 204.595 11.112 204.387 10.912C204.187 10.712 203.951 10.556 203.679 10.444C203.415 10.332 203.131 10.276 202.827 10.276C202.523 10.276 202.235 10.332 201.963 10.444C201.691 10.556 201.451 10.712 201.243 10.912C201.043 11.112 200.879 11.352 200.751 11.632C200.631 11.912 200.559 12.216 200.535 12.544H205.131ZM209.246 16.12C208.758 16.12 208.282 16.04 207.818 15.88C207.354 15.72 206.954 15.488 206.618 15.184L206.99 14.632C207.342 14.92 207.698 15.136 208.058 15.28C208.426 15.424 208.818 15.496 209.234 15.496C209.738 15.496 210.138 15.396 210.434 15.196C210.738 14.988 210.89 14.696 210.89 14.32C210.89 14.144 210.85 14 210.77 13.888C210.69 13.768 210.57 13.664 210.41 13.576C210.258 13.488 210.062 13.412 209.822 13.348C209.59 13.276 209.318 13.204 209.006 13.132C208.646 13.044 208.334 12.956 208.07 12.868C207.806 12.78 207.586 12.68 207.41 12.568C207.242 12.456 207.114 12.32 207.026 12.16C206.946 11.992 206.906 11.784 206.906 11.536C206.906 11.224 206.966 10.948 207.086 10.708C207.214 10.468 207.382 10.272 207.59 10.12C207.806 9.96 208.054 9.84 208.334 9.76C208.622 9.68 208.926 9.64 209.246 9.64C209.726 9.64 210.162 9.72 210.554 9.88C210.946 10.032 211.262 10.236 211.502 10.492L211.106 10.972C210.874 10.732 210.59 10.552 210.254 10.432C209.926 10.312 209.582 10.252 209.222 10.252C209.006 10.252 208.806 10.276 208.622 10.324C208.438 10.364 208.274 10.432 208.13 10.528C207.994 10.624 207.886 10.748 207.806 10.9C207.726 11.044 207.686 11.216 207.686 11.416C207.686 11.584 207.714 11.72 207.77 11.824C207.826 11.928 207.918 12.02 208.046 12.1C208.174 12.172 208.334 12.24 208.526 12.304C208.726 12.36 208.966 12.42 209.246 12.484C209.646 12.58 209.998 12.676 210.302 12.772C210.606 12.868 210.858 12.98 211.058 13.108C211.266 13.236 211.422 13.392 211.526 13.576C211.63 13.76 211.682 13.984 211.682 14.248C211.682 14.824 211.462 15.28 211.022 15.616C210.582 15.952 209.99 16.12 209.246 16.12Z" fill="white"/>
<path fill-rule="evenodd" clip-rule="evenodd" d="M0 7.55609V7.61529L13.5246 13.9679L27.0968 7.59367V7.57767L13.5246 1.20372L0 7.55609ZM4.87581 7.58584L13.5248 3.52348L22.1747 7.58584L13.5246 11.6479L4.87581 7.58584ZM13.5246 16.4353L0 10.1778V12.4922L13.5246 18.764L27.0968 12.4709V10.1562L13.5246 16.4353ZM13.5246 21.1293L0 14.8712V17.1856L13.5246 23.4583L27.0968 17.1643V14.8498L13.5246 21.1293Z" fill="white"/>
<path fill-rule="evenodd" clip-rule="evenodd" d="M76.9163 12.1019C76.9163 11.5652 76.8236 11.0648 76.638 10.6006C76.4524 10.1365 76.199 9.73035 75.8778 9.38222C75.5566 9.03408 75.1819 8.76211 74.7536 8.5663C74.3253 8.37049 73.8685 8.27257 73.3831 8.27257C72.8978 8.27257 72.4409 8.37049 72.0126 8.5663C71.5844 8.76211 71.2096 9.03408 70.8884 9.38222C70.5672 9.73035 70.3138 10.1365 70.1282 10.6006C69.9427 11.0648 69.8499 11.5652 69.8499 12.1019C69.8499 12.6386 69.9427 13.1391 70.1282 13.6032C70.3138 14.0674 70.5672 14.4735 70.8884 14.8216C71.2096 15.1698 71.5844 15.4418 72.0126 15.6376C72.4409 15.8334 72.8978 15.9313 73.3831 15.9313C73.8685 15.9313 74.3253 15.8334 74.7536 15.6376C75.1819 15.4418 75.5566 15.1698 75.8778 14.8216C76.199 14.4735 76.4524 14.0674 76.638 13.6032C76.8236 13.1391 76.9163 12.6386 76.9163 12.1019ZM79.9999 12.1019C79.9999 13.0448 79.8286 13.9187 79.486 14.7237C79.1434 15.5288 78.6723 16.225 78.0727 16.8125C77.4731 17.3999 76.77 17.8641 75.9635 18.205C75.1568 18.5458 74.2968 18.7163 73.3831 18.7163C72.4694 18.7163 71.6129 18.5458 70.8135 18.205C70.014 17.8641 69.3145 17.3963 68.7149 16.8016C68.1154 16.2069 67.6443 15.507 67.3017 14.702C66.959 13.897 66.7877 13.0303 66.7877 12.1019C66.7877 11.1881 66.9626 10.3287 67.3123 9.52363C67.6621 8.71859 68.1368 8.01509 68.7364 7.41313C69.3359 6.81116 70.0354 6.33976 70.8349 5.99888C71.6343 5.65802 72.4837 5.48757 73.3831 5.48757C74.2968 5.48757 75.1568 5.65802 75.9635 5.99888C76.77 6.33976 77.4731 6.80391 78.0727 7.39137C78.6723 7.97884 79.1434 8.67871 79.486 9.49099C79.8286 10.3033 79.9999 11.1736 79.9999 12.1019ZM65.717 18.3246C65.4743 18.4407 65.1995 18.535 64.8926 18.6075C64.5857 18.68 64.2681 18.7163 63.9397 18.7163C63.4829 18.7163 63.0439 18.6546 62.6228 18.5314C62.2017 18.4081 61.834 18.2086 61.52 17.933C61.2059 17.6574 60.9561 17.2984 60.7705 16.856C60.5849 16.4136 60.4921 15.8805 60.4921 15.2568V0.330994H63.6399V14.7129C63.6399 15.235 63.7434 15.594 63.9504 15.7899C64.1574 15.9857 64.4037 16.0836 64.6892 16.0836C65.0461 16.0836 65.3887 15.9748 65.717 15.7572V18.3247V18.3246ZM59.1002 5.79219L53.5327 20.7398C53.1187 21.8567 52.5762 22.6617 51.9052 23.1549C51.2343 23.6481 50.4349 23.8946 49.5069 23.8946C49.3642 23.8946 49.2071 23.8838 49.0358 23.862C48.8645 23.8402 48.7003 23.8076 48.5433 23.7641L47.5155 20.8486C47.7582 20.9646 48.008 21.0552 48.265 21.1205C48.5219 21.1858 48.7646 21.2184 48.993 21.2184C49.4784 21.2184 49.9209 21.106 50.3206 20.8812C50.7204 20.6564 51.0273 20.2393 51.2414 19.6301L51.6697 18.3682L46.8945 5.79219H50.2564L53.1044 13.8861L55.7811 5.79219H59.1002ZM46.145 3.89926H38.0935V7.9462H46.0379V10.6877H38.0935V18.3899H34.8386V1.00547H46.145V3.89926Z" fill="white"/>
</g>
<defs>
<clipPath id="clip0_0_79">
<rect width="331" height="24" fill="white"/>
</clipPath>
</defs>
</svg>
